# xmcd
#
# Track frame offsets:
#	150
#	12995
#	27052
#	44152
#	58817
#	77747
#	89570
#	103710
#	119082
#	134200
#	152120
#	165285
#	181495
#	197907
#	212612
#	228920
#
# Disc length: 3240 seconds
# Revision: 5
# Processed by: cddbd v1.5.2PL0 Copyright (c) Steve Scherf et al.
# Submitted via: dBpowerAMP V12.0
#
DISCID=e40ca610
DTITLE=Various Artist - More Hot Country Requests Volume 2
DYEAR=1988
DGENRE=Country
TTITLE0=The O'Kanes - Can't Stop My Heart from Loving You
TTITLE1=Sweethearts of the Rodeo - Midnight Girl - Sunset Town
TTITLE2=Rosanne Cash - Second to No One
TTITLE3=John Conlee - The Carpenter
TTITLE4=Exile - I Can't Get Close Enough
TTITLE5=Mickey Gilley - Full Grown Fool
TTITLE6=Asleep at the Wheel - House of Blue Lights
TTITLE7=Ricky van Shelton - Crime of Passion
TTITLE8=Ricky van Shelton - Somebody Lied
TTITLE9=John Conlee - Domestic Life
TTITLE10=Sweethearts of the Rodeo - Chains of Gold
TTITLE11=Larry Gatlin and the Gatlin Brothers - Talkin' to the Moon
TTITLE12=Exile - She's Too Good to Be True
TTITLE13=George Jones - The Right Left Hand
TTITLE14=T.G. Sheppard - Half Past Forever ('Til I'm Blue in the Heart)
TTITLE15=Tammy Wynette - Your Love
EXTD=
EXTT0=
EXTT1=
EXTT2=
EXTT3=
EXTT4=
EXTT5=
EXTT6=
EXTT7=
EXTT8=
EXTT9=
EXTT10=
EXTT11=
EXTT12=
EXTT13=
EXTT14=
EXTT15=
PLAYORDER=
